<?xml version="1.0" encoding="UTF-8" standalone="no"?>
<!-- Created with Inkscape (http://www.inkscape.org/) -->

<svg
   width="134.92947mm"
   height="135.23494mm"
   viewBox="0 0 134.92947 135.23494"
   version="1.1"
   id="svg1"
   xml:space="preserve"
   xmlns="http://www.w3.org/2000/svg"
   xmlns:svg="http://www.w3.org/2000/svg"><defs
     id="defs1" /><g
     id="layer1"
     transform="translate(222.49076,172.13683)"><g
       id="g13"><g
         id="g14"><path
           style="fill:#9b5e5e;fill-opacity:1;stroke:#9b5e5e;stroke-width:3.77953;stroke-linecap:butt;stroke-linejoin:round;stroke-miterlimit:6;stroke-dasharray:none;stroke-opacity:1;paint-order:fill markers stroke"
           d="m -593.5918,-375.62739 c -4.67501,-4.57556 -9.52681,-9.48059 -12.40117,-12.53722 -1.01649,-1.08094 -2.75693,-2.9923 -2.81088,-3.08692 -0.0989,-0.17336 4.41149,-4.87928 8.6631,-9.03873 2.04926,-2.00484 6.24885,-6.03461 6.80427,-6.52913 l 0.22789,-0.2029 9.22567,9.22511 c 5.07412,5.07381 9.22981,9.23534 9.23486,9.24784 0.005,0.0125 -3.56079,3.60471 -7.92411,7.98268 l -7.9333,7.95994 z"
           id="path2"
           transform="scale(0.26458333)" /><path
           style="fill:#9b5e5e;fill-opacity:1;stroke:#9b5e5e;stroke-width:3.77951;stroke-linecap:butt;stroke-linejoin:round;stroke-miterlimit:6;stroke-dasharray:none;stroke-opacity:1;paint-order:fill markers stroke"
           d="m -573.01487,-408.40602 -9.14271,-9.14276 0.41038,-0.40734 c 0.2257,-0.22404 2.70171,-2.6427 5.50222,-5.3748 l 5.09184,-4.96746 0.20729,0.20286 c 0.114,0.11157 4.2628,4.1175 9.21953,8.90207 4.95674,4.78457 9.01646,8.71145 9.0216,8.72641 0.005,0.0149 -2.50544,2.54192 -5.57905,5.61549 l -5.5884,5.5883 z"
           id="path3"
           transform="scale(0.26458333)" /><path
           style="fill:#9b5e5e;fill-opacity:1;stroke:#9b5e5e;stroke-width:3.77951;stroke-linecap:butt;stroke-linejoin:round;stroke-miterlimit:6;stroke-dasharray:none;stroke-opacity:1;paint-order:fill markers stroke"
           d="m -550.81305,-429.73597 c -4.92474,-4.75339 -9.06792,-8.75512 -9.20706,-8.89273 l -0.25298,-0.2502 2.82791,-2.816 c 1.55535,-1.5488 4.06661,-4.05033 5.58058,-5.55895 1.51397,-1.50862 2.76506,-2.74715 2.7802,-2.75228 0.0151,-0.005 4.13071,4.09387 9.14571,9.10891 l 9.11819,9.11824 -5.06923,4.90155 c -2.78807,2.69585 -5.27173,5.10009 -5.51923,5.34277 l -0.45,0.44122 z"
           id="path4"
           transform="scale(0.26458333)" /><path
           style="fill:#9b5e5e;fill-opacity:1;stroke:#9b5e5e;stroke-width:3.77951;stroke-linecap:butt;stroke-linejoin:round;stroke-miterlimit:6;stroke-dasharray:none;stroke-opacity:1;paint-order:fill markers stroke"
           d="m -529.15861,-451.53757 -9.1349,-9.13495 5.71714,-5.62782 5.71715,-5.62781 1.57029,1.58025 c 3.23043,3.25091 9.23115,9.27843 12.84018,12.89752 l 3.73117,3.74158 -5.65299,5.65309 c -3.10915,3.1092 -5.65304,5.65309 -5.65308,5.65309 -4e-5,0 -4.11077,-4.11073 -9.13496,-9.13495 z"
           id="path5"
           transform="scale(0.26458333)" /><path
           style="fill:#9b5e5e;fill-opacity:1;stroke:#9b5e5e;stroke-width:3.77951;stroke-linecap:butt;stroke-linejoin:round;stroke-miterlimit:6;stroke-dasharray:none;stroke-opacity:1;paint-order:fill markers stroke"
           d="m -499.21852,-465.64142 c -0.66583,-0.67267 -2.8819,-2.90233 -4.92461,-4.95481 -8.20171,-8.24096 -11.05053,-11.10573 -11.49516,-11.55951 l -0.46593,-0.47553 1.8111,-1.81922 c 0.99611,-1.00057 3.5126,-3.53012 5.59221,-5.62122 l 3.7811,-3.80201 9.0918,9.0918 9.09181,9.09181 -5.63586,5.63585 -5.63586,5.63586 z"
           id="path6"
           transform="scale(0.26458333)" /><path
           style="fill:#9b5e5e;fill-opacity:1;stroke:#9b5e5e;stroke-width:3.77951;stroke-linecap:butt;stroke-linejoin:round;stroke-miterlimit:6;stroke-dasharray:none;stroke-opacity:1;paint-order:fill markers stroke"
           d="m -485.12262,-495.53429 -9.09659,-9.09664 5.62295,-5.64698 5.62294,-5.64698 9.11799,9.11793 9.11798,9.11793 -5.6256,5.6257 c -3.09409,3.09413 -5.63404,5.62569 -5.64434,5.62569 -0.0103,0 -4.1122,-4.09349 -9.11533,-9.09665 z"
           id="path7"
           transform="scale(0.26458333)" /><path
           style="fill:#9b5e5e;fill-opacity:1;stroke:#9b5e5e;stroke-width:3.77951;stroke-linecap:butt;stroke-linejoin:round;stroke-miterlimit:6;stroke-dasharray:none;stroke-opacity:1;paint-order:fill markers stroke"
           d="m -463.13267,-517.54203 -9.12416,-9.12422 5.63499,-5.63499 5.63499,-5.63499 9.12416,9.12422 9.12416,9.12422 -5.63499,5.63499 -5.63499,5.63499 z"
           id="path8"
           transform="scale(0.26458333)" /><path
           style="fill:#9b5e5e;fill-opacity:1;stroke:#9b5e5e;stroke-width:3.77951;stroke-linecap:butt;stroke-linejoin:round;stroke-miterlimit:6;stroke-dasharray:none;stroke-opacity:1;paint-order:fill markers stroke"
           d="m -441.12684,-539.5339 -9.13119,-9.13124 7.9965,-7.99644 7.9965,-7.99643 7.59302,7.75005 c 4.17616,4.26252 8.2532,8.4235 9.0601,9.24661 l 1.46708,1.49656 -4.13531,4.11576 c -2.27441,2.26367 -5.84085,5.81015 -7.9254,7.88107 l -3.79011,3.76531 z"
           id="path9"
           transform="scale(0.26458333)" /><path
           style="fill:#fff3be;fill-opacity:1;stroke:#fff3be;stroke-width:3.77953;stroke-linecap:butt;stroke-linejoin:round;stroke-miterlimit:6;stroke-dasharray:none;stroke-opacity:1;paint-order:fill markers stroke"
           d="m -411.18861,-562.82317 c -4.10144,-4.19408 -8.88067,-9.07553 -10.62051,-10.84767 l -3.16334,-3.22208 0.40236,-1.36938 c 0.41063,-1.39753 1.0835,-3.40326 2.65863,-7.92498 1.07071,-3.0737 1.34359,-3.53153 3.23938,-5.43501 2.14392,-2.15262 3.93585,-3.50265 10.8237,-8.15452 5.57501,-3.76521 5.51223,-3.71931 23.71406,-17.33774 9.09487,-6.8047 17.01934,-12.71043 17.60992,-13.12385 5.71888,-4.00332 10.52922,-5.789 13.8289,-5.13352 2.3897,0.47471 4.5793,2.1745 5.72571,4.44487 0.50709,1.00425 0.72536,1.84393 0.78692,3.02733 0.0736,1.41382 -0.0704,2.19881 -0.6059,3.30344 -0.88906,1.83403 -2.45834,3.57049 -6.80607,7.53115 -6.30241,5.74131 -8.11935,7.8342 -10.87225,12.52348 -3.00473,5.11825 -5.49791,10.72848 -10.29601,23.16838 -2.22765,5.77556 -3.22713,8.18111 -4.33482,10.433 -1.07956,2.19471 -1.20686,2.34764 -3.68169,4.42292 -5.05128,4.23577 -12.18163,8.77854 -15.59506,9.93566 -0.85496,0.28982 -4.38765,1.23386 -4.93455,1.31866 l -0.42221,0.0655 z"
           id="path10"
           transform="scale(0.26458333)" /><path
           style="fill:#fe4654;fill-opacity:1;stroke:#fe4654;stroke-width:3.77953;stroke-linecap:butt;stroke-linejoin:round;stroke-miterlimit:6;stroke-dasharray:none;stroke-opacity:1;paint-order:fill markers stroke"
           d="m -691.7793,-155.58561 c -12.62664,-1.73195 -24.45114,-6.22232 -34.87656,-13.24441 -9.35736,-6.30269 -18.3142,-14.48283 -35.42122,-32.34962 -5.78076,-6.0375 -17.37158,-17.81696 -25.75738,-26.17657 -19.86437,-19.80234 -24.36523,-25.26421 -29.57296,-35.88724 -8.59914,-17.54107 -10.37874,-37.28193 -5.26124,-58.3622 6.02047,-24.7998 20.78474,-40.97682 49.40421,-54.13152 6.98855,-3.21223 16.21524,-6.77282 33.95412,-13.10293 33.38939,-11.91499 39.97254,-14.62712 48.88282,-20.13879 11.2012,-6.92878 19.60917,-16.06081 28.30758,-30.74534 1.51306,-2.55432 5.26732,-9.29901 8.34278,-14.9882 11.69444,-21.63305 16.67122,-28.93785 27.61419,-40.53147 14.88348,-15.7684 23.12409,-21.07267 32.78492,-21.10281 5.64881,-0.0176 9.95829,1.4947 13.03953,4.57594 2.68831,2.68832 3.21091,4.4707 2.31716,7.90293 -1.22961,4.72206 -4.56863,9.42656 -12.94545,18.23944 -9.365,9.85251 -12.8386,15.02918 -14.5121,21.62722 -0.93686,3.69372 -0.63553,9.8259 0.64794,13.18565 2.11439,5.53484 8.3749,12.06447 14.90353,15.5442 l 2.60526,1.38859 -6.07644,5.77646 -6.07644,5.77647 -2.8367,-2.3818 c -5.15324,-4.32684 -9.24989,-5.73734 -15.74716,-5.42179 -4.33759,0.21066 -8.49179,1.47522 -12.43115,3.78412 -1.46305,0.85751 -5.09364,4.10732 -9.34891,8.3684 -3.82633,3.83154 -13.80087,13.10731 -22.16565,20.61282 l -15.20869,13.64637 -5.91084,2.89451 c -3.25096,1.59198 -8.38072,3.79164 -11.39947,4.88815 -22.15424,8.04712 -29.49711,11.83813 -37.0935,19.1508 -5.16609,4.97315 -8.38452,10.01316 -10.9363,17.12607 -2.05024,5.71492 -2.57079,9.45324 -2.48429,17.84101 0.0626,6.0671 -0.0518,7.9547 -0.53719,8.86626 -0.80565,1.513 -2.59126,3.35386 -9.8768,10.1824 -14.63206,13.71422 -19.84246,24.17047 -17.16555,34.44784 1.29868,4.98597 2.09826,5.95513 19.17718,23.24454 8.95068,9.06099 19.12383,19.38665 22.60701,22.9459 9.77489,9.98838 13.61678,12.53034 20.56847,13.60893 6.9746,1.08214 13.94816,-1.01932 21.0194,-6.33413 1.50987,-1.13484 5.15096,-4.53074 8.09131,-7.54645 4.71917,-4.84012 5.37971,-5.37761 5.63274,-4.58343 0.15766,0.49483 0.44309,6.59942 0.63429,13.56577 0.38523,14.03555 0.87172,17.21007 3.40701,22.23247 3.64551,7.2217 11.16637,11.35245 19.5987,10.76436 9.85994,-0.68765 19.16859,-7.21517 26.66959,-18.70155 9.30669,-14.25147 22.00093,-47.25113 30.10451,-78.25901 3.00398,-11.49455 5.04683,-16.90894 8.73072,-23.13999 3.01676,-5.10263 5.76493,-8.21428 10.82473,-12.25644 9.23815,-7.38016 12.08241,-11.29911 12.44315,-17.14472 0.45006,-7.29306 -2.89848,-14.23281 -12.55274,-26.01516 -2.32891,-2.84227 -4.23438,-5.28357 -4.23438,-5.42511 0,-0.14154 3.22157,-3.47474 7.15904,-7.4071 4.61244,-4.60646 7.22377,-6.93266 7.34102,-6.53948 0.10009,0.33564 0.58668,2.20429 1.08132,4.15256 1.7865,7.03668 5.35923,13.10852 10.46294,17.78172 6.36729,5.83019 13.48734,8.542 22.509,8.57299 5.24129,0.018 8.46605,-0.71807 13.29939,-3.03569 4.25164,-2.03869 7.0856,-4.18966 13.72159,-10.41465 10.93387,-10.25666 15.84811,-12.67682 20.99587,-10.34001 2.26064,1.02621 3.48822,2.96996 3.49032,5.52657 0.003,3.90265 -2.96331,7.8913 -11.9573,16.07728 -8.60701,7.83377 -13.82254,11.0155 -35.44208,21.6214 -19.46264,9.54779 -26.79139,14.14628 -34.08522,21.38706 -11.28562,11.20354 -16.5675,22.06615 -29.76753,61.2194 -7.50187,22.25166 -9.89524,28.52367 -14.58052,38.20936 -11.3613,23.48677 -27.15414,38.131 -48.99804,45.43442 -5.38522,1.80052 -10.84837,3.04246 -16.41453,3.73152 -4.77305,0.59087 -15.72428,0.48808 -20.69901,-0.19429 z"
           id="path11"
           transform="scale(0.26458333)" /><path
           style="fill:#706670;fill-opacity:1;stroke:#706670;stroke-width:3.77953;stroke-linecap:butt;stroke-linejoin:round;stroke-miterlimit:6;stroke-dasharray:none;stroke-opacity:1;paint-order:fill markers stroke"
           d="m -708.7983,-223.82747 c -1.00651,-0.22058 -1.66761,-0.54833 -2.78824,-1.38233 -2.85125,-2.12197 -6.79018,-5.90778 -12.28176,-11.8043 -1.79011,-1.92212 -9.5444,-9.79093 -17.99451,-18.26027 -10.40445,-10.42813 -14.98006,-15.08329 -15.28718,-15.55298 -0.56222,-0.85981 -0.75683,-1.53071 -0.75683,-2.60909 0,-2.4161 1.88594,-6.06448 5.20686,-10.07275 2.47655,-2.98914 5.28084,-5.80138 10.73236,-10.76279 1.30561,-1.18822 3.30004,-3.06607 4.43207,-4.17299 2.21414,-2.16503 2.71002,-2.56931 3.8526,-3.14097 1.53464,-0.76782 3.71848,-1.23937 5.00498,-1.08071 3.27489,0.40388 11.51094,6.45046 23.91591,17.55812 7.27579,6.51489 15.91916,15.64463 22.69899,23.97626 3.06396,3.76526 3.67012,4.62461 4.05872,5.7541 1.02365,2.97529 -0.70424,7.03843 -5.22852,12.2949 -0.52465,0.60956 -1.15929,1.36952 -1.41031,1.68881 -0.55895,0.71097 -5.44514,6.14025 -7.39896,8.22136 -2.73379,2.91188 -5.9229,5.71795 -8.21949,7.23224 -1.31672,0.86821 -3.16629,1.76895 -4.23443,2.06218 -0.94396,0.25914 -3.22931,0.28634 -4.30226,0.0512 z m 9.31379,-16.87305 c 2.32558,-0.78196 4.04994,-2.50248 4.87404,-4.86319 0.27029,-0.77427 0.29478,-0.97153 0.29478,-2.37489 0,-1.40336 -0.0245,-1.60062 -0.29478,-2.37489 -0.66021,-1.89124 0.25409,-0.9132 -17.05181,-18.2405 -8.74429,-8.75512 -16.1837,-16.13599 -16.53202,-16.40196 -0.76179,-0.58166 -1.86365,-1.12072 -2.79709,-1.36839 -0.92304,-0.24492 -2.7693,-0.24522 -3.69427,-6.4e-4 -3.43881,0.9094 -5.73238,3.85208 -5.73217,7.35444 1.1e-4,1.673 0.37653,2.95754 1.25414,4.27972 0.47425,0.71449 32.16585,32.46998 32.90551,32.97184 0.74966,0.50866 1.92609,1.02429 2.76442,1.21167 1.14095,0.25501 2.93302,0.16863 4.00925,-0.19324 z"
           id="path12"
           transform="scale(0.26458333)" /><path
           style="fill:#ffffff;fill-opacity:1;stroke:#fcfbfc;stroke-width:3.77952;stroke-linecap:butt;stroke-linejoin:round;stroke-miterlimit:6;stroke-dasharray:none;stroke-opacity:1;paint-order:fill markers stroke"
           d="m -655.62458,-196.24949 c -3.02154,-1.377 -3.73574,-4.89263 -3.85981,-18.99963 -0.0484,-5.50065 -0.23751,-11.00875 -0.42031,-12.24024 -0.62961,-4.2416 -2.17432,-7.98688 -4.65548,-11.28754 l -1.41283,-1.87949 0.91263,-1.99958 c 3.45126,-7.56177 3.55636,-13.98765 0.33544,-20.50922 -2.17427,-4.40236 -10.97042,-14.74346 -21.60997,-25.40553 -12.86571,-12.89295 -25.83093,-23.4512 -33.16856,-27.01087 -2.75777,-1.33787 -6.45342,-2.36614 -8.50401,-2.36614 h -1.40886 l -0.20226,-4.25423 c -0.23924,-5.032 0.16733,-7.88802 1.75538,-12.3312 3.01794,-8.44382 8.38493,-13.89059 18.52631,-18.8017 4.35251,-2.10777 7.71251,-3.45705 17.46474,-7.01335 11.40867,-4.16034 17.84431,-7.10479 23.13704,-10.58568 3.45964,-2.27532 34.09434,-29.90542 38.06416,-34.3309 5.43364,-6.0573 8.97856,-8.71002 12.67588,-9.48554 2.02535,-0.42482 3.72571,0.16713 5.75344,2.00295 l 1.41796,1.28376 -3.72888,3.84984 c -9.26449,9.56501 -11.143,12.32836 -11.13093,16.37387 0.008,2.52262 0.64314,4.12236 2.74934,6.91976 2.33543,3.10186 8.59761,9.76228 17.09523,18.18241 8.02102,7.94788 9.66403,9.73889 16.13592,17.58941 6.98804,8.47661 9.88419,12.70038 10.88467,15.87427 l 0.50431,1.59986 -1.17554,1.21711 c -0.64654,0.66941 -3.11631,2.77351 -5.48837,4.67579 -6.41903,5.14774 -9.42749,8.36761 -13.22124,14.15038 -5.15627,7.85962 -8.25019,15.54686 -11.87518,29.50537 -8.2297,31.68959 -21.23875,64.84658 -30.072,76.64645 -2.21808,2.963 -5.86136,6.2658 -8.44955,7.6599 -1.74421,0.93949 -2.53635,1.18404 -4.13276,1.27584 -1.28497,0.0739 -2.29672,-0.0331 -2.89591,-0.30613 z m -4.535,-94.54449 c 2.89778,-0.80479 5.30667,-4.01694 5.30667,-7.07622 0,-3.4987 0.34906,-3.05138 -12.36555,-15.84628 -6.41692,-6.45743 -12.15142,-11.99191 -12.74334,-12.29885 -4.98956,-2.58733 -11.10251,1.09499 -11.13126,6.70527 -0.0177,3.45312 -0.24557,3.16105 12.31862,15.78933 6.34261,6.37497 11.93418,11.80269 12.42572,12.0616 1.88845,0.99473 4.13362,1.23602 6.18914,0.66515 z m 21.98866,-21.05048 c 1.82151,-0.54093 3.67367,-2.08732 4.60386,-3.84384 0.90765,-1.71392 0.90766,-5.20162 2e-5,-6.88684 -0.3602,-0.6688 -5.74222,-6.26741 -12.23332,-12.72565 -12.96342,-12.89778 -12.72843,-12.71922 -16.35563,-12.42807 -3.23482,0.25966 -5.58439,2.09641 -6.63827,5.18937 -0.63741,1.87068 -0.37908,4.49645 0.60571,6.15688 0.41385,0.69778 5.90111,6.39577 12.19391,12.66221 10.4841,10.44019 11.56635,11.4314 12.93416,11.84627 1.94431,0.58972 2.98245,0.59602 4.88956,0.0297 z m 23.1938,-22.45676 c 1.55089,-0.79195 3.22851,-2.64639 3.73828,-4.13228 0.68084,-1.98457 0.49902,-4.5411 -0.44653,-6.27839 -1.05838,-1.9446 -22.77564,-23.64358 -24.40942,-24.38888 -5.25947,-2.39926 -11.00861,1.23806 -10.98946,6.95273 0.0115,3.4316 0.0529,3.48402 12.76968,16.17454 9.64735,9.62742 11.77677,11.61033 12.89842,12.01096 1.79766,0.64209 4.83081,0.48256 6.43903,-0.33868 z"
           id="path13"
           transform="scale(0.26458333)" /><path
           style="fill:none;stroke:#060606;stroke-width:4;stroke-linecap:round;stroke-dasharray:none"
           d="m -107.81146,-145.03107 -6.61458,-6.75132 c -0.48083,-0.49077 0.73076,-3.40682 1.01916,-4.34938 0.69616,-2.27523 3.89346,-3.71307 6.73898,-5.90028 l 7.667312,-5.7385 c 2.11303,-1.6228 5.04555,-3.41578 7.58921,-1.68078 1.437573,0.98055 2.118596,2.7039 1.751846,4.31193 -0.511356,2.24206 -3.374696,3.67025 -4.630406,5.55625 -2.08889,3.13736 -3.46734,8.5719 -4.71065,10.30813 -0.699661,0.88851 -4.097692,3.43943 -5.900452,3.96997 -2.91042,0.85651 -1.68613,0.13065 -2.24631,0.6878 l -7.16804,7.12925 -5.82083,5.82084 -5.82084,5.82083 -5.82083,5.82083 -5.82083,5.82084 -5.79655,5.60729 -5.79543,5.79539 -6.79553,6.805423 c -0.78917,0.790316 6.37878,6.410539 4.73574,9.393494 -0.62043,1.126401 -2.75142,2.445492 -3.6568,3.350273 -2.52743,2.566433 -3.81626,6.240355 -4.42442,8.877349 -0.60816,2.636993 -3.8817,14.096335 -7.68313,20.361036 -1.41798,2.336816 -4.13388,4.94211 -6.94245,4.097368 -3.79444,-1.141266 -2.05928,-7.587901 -2.74913,-10.447368 -0.32793,-1.359275 -1.01104,-1.853698 -1.4842,-2.381249 m 46.30208,-57.414576 -7.49551,-7.53331 5.79715,-5.8308 5.79675,-5.82083 5.82083,-5.82084 7.01411,-7.00881 m -6.87917,7.14375 7.40834,7.40834 m -13.22917,-1.5875 7.40833,7.40833 m -13.22916,-1.5875 7.40833,7.40833 m -24.43869,9.28157 5.0647,-5.03067 6.05765,-5.96337 m -5.73366,5.94581 7.40833,7.40833 m -13.49375,-1.85208 7.67292,7.40833 m -12.96458,-1.32292 c 0.90829,0.90829 4.03334,4.03335 5.82083,5.82083 m 4.66729,-1.70075 c -2.09029,2.09027 -2.20157,6.019275 -0.61827,9.109087 0.73315,1.430737 2.3379,2.85107 3.88852,3.295858 5.99529,1.719719 7.37893,-3.629889 11.90625,-5.790214 2.16117,-1.031251 5.14669,-0.242928 5.8043,2.229773 0.77904,2.929327 -1.55283,4.765713 -3.42305,6.613566 -4.91151,4.852772 -11.5251,6.151982 -16.93333,10.097235 -4.2183,3.07721 -5.7101,7.442891 -7.42242,12.128781 -2.57249,7.039815 -4.41719,14.994425 -9.19468,20.902089 -8.05637,9.962171 -22.78859,11.142476 -32.5954,3.64169 -4.91931,-3.76255 -9.11852,-8.791463 -13.49375,-13.166696 -3.71344,-3.713436 -8.02144,-7.293079 -10.23607,-12.170833 -2.6387,-5.76315 -2.74366,-11.763452 -1.02873,-17.727082 3.72232,-12.67006 16.28106,-15.406694 27.1398,-19.466884 4.39864,-1.64469 8.57276,-2.90806 11.88237,-6.46248 3.19309,-3.4293 4.88674,-7.62618 7.22207,-11.6177 2.56262,-4.38003 3.83684,-6.04489 7.39949,-9.60754 3.06592,-3.06593 6.03982,-5.36783 10.53733,-4.51488 0.82504,0.15647 1.71052,0.46913 2.38105,0.97504 4.69168,3.53984 0.23907,8.18157 -2.85823,11.29529 -5.23561,5.26336 -1.50958,7.928 0.25996,9.07528 3.19617,2.07221 6.78608,-1.43233 6.15298,-0.81428 l -7.94273,7.75385 c 0,0 -6.45929,5.9218 -6.35926,6.71555 0.10003,0.79375 6.18232,6.614587 6.18232,6.614587 1.12637,1.205123 1.98303,2.138215 2.24802,2.56262 m -14.08662,-1.504286 5.55625,5.556249 m -11.37708,0.264584 5.55625,5.556249 m -11.37709,0 5.55625,5.55625 m -20.60405,-2.149863 c 1.05924,-0.923895 2.72307,-1.276595 3.86621,-0.941976 1.92201,0.562609 5.52312,3.816147 7.08904,5.211737 1.81545,1.617976 4.73046,4.673289 6.83026,7.405102 2.0998,2.731813 -0.47109,5.596132 -1.36263,6.614583 -0.58709,0.670656 1.93928,-2.086079 -0.84591,0.979526 -1.33738,1.472022 -3.82171,4.482495 -6.35,4.608165 -0.91688,0.04557 -1.86685,-0.108488 -2.64583,-0.675346 -1.9377,-1.410032 -3.59623,-3.48149 -5.29167,-5.176929 l -6.87917,-6.879166 c -3.70122,-3.701214 3.11989,-8.656398 4.99953,-10.583333 1.87964,-1.926935 1.42303,-2.984206 1.3515,-5.556249 0.0247,-2.012022 0.85864,-4.457763 2.20261,-6.085417 3.6696,-4.444173 10.59451,-4.759875 15.25886,-7.991807 l 8.20209,-7.35402 c 1.31995,-1.31996 2.72886,-3.25025 4.49791,-3.96631 2.86583,-1.16 4.12596,0.48239 5.29167,1.58506 m -34.22827,36.03918 8.20208,8.202083"
           id="path1" /></g></g></g></svg>
