<?xml version="1.0" encoding="UTF-8" standalone="no"?>
<!-- Created with Inkscape (http://www.inkscape.org/) -->

<svg
   version="1.1"
   id="svg1"
   width="997.08496"
   height="996.46259"
   viewBox="0 0 997.08496 996.46259"
   xml:space="preserve"
   xmlns="http://www.w3.org/2000/svg"
   xmlns:svg="http://www.w3.org/2000/svg"><defs
     id="defs1" /><g
     id="g1"
     transform="translate(1479.0121,1121.6436)"><g
       id="g55"><g
         id="g53"
         style="fill:#ebb45a;fill-opacity:1;stroke:#ebb45a;stroke-opacity:1"><path
           style="fill:#ebb45a;fill-opacity:1;stroke:#ebb45a;stroke-width:8.31497;stroke-linecap:round;stroke-linejoin:round;stroke-miterlimit:6;stroke-opacity:1;paint-order:fill markers stroke"
           d="m -968.32883,-226.87249 c -3.53724,-0.7689 -3.91196,-1.06024 -14.28356,-11.10516 -24.72331,-23.94461 -145.14031,-143.91889 -238.67411,-237.79667 l -22.3968,-22.4792 13.07,-13.0675 13.0701,-13.0675 108.0741,108.13366 c 115.39443,115.45798 156.46367,156.8876 161.15219,162.56623 1.60675,1.94607 2.3405,4.41391 2.51555,8.46062 0.12653,2.92531 0.0506,3.80894 -0.49958,5.81439 -0.88561,3.2281 -2.20259,5.58437 -4.46291,7.9848 -3.20414,3.40275 -7.42564,5.01505 -13.02969,4.97636 -1.47863,-0.0102 -3.51951,-0.19922 -4.53529,-0.42003 z"
           id="path42" /><path
           style="fill:#ebb45a;fill-opacity:1;stroke:#ebb45a;stroke-width:8.31497;stroke-linecap:round;stroke-linejoin:round;stroke-miterlimit:6;stroke-opacity:1;paint-order:fill markers stroke"
           d="m -871.11606,-322.59839 c -0.7792,-0.14239 -2.28235,-0.54696 -3.34032,-0.89903 -1.84653,-0.61448 -2.25646,-0.96049 -10.23303,-8.63726 -18.1211,-17.44003 -62.40295,-61.43247 -160.50309,-159.45412 l -102.6075,-102.5254 13.1426,-13.15562 13.1426,-13.15563 90.7527,90.73425 c 104.00632,103.98516 170.18602,170.7138 177.86662,179.34197 5.07135,5.69702 4.17139,16.6834 -1.8801,22.95166 -2.13576,2.21227 -4.47121,3.57349 -7.45596,4.34573 -2.17862,0.56366 -6.94906,0.80714 -8.88452,0.45345 z"
           id="path43" /><path
           style="fill:#ebb45a;fill-opacity:1;stroke:#ebb45a;stroke-width:8.31497;stroke-linecap:round;stroke-linejoin:round;stroke-miterlimit:6;stroke-opacity:1;paint-order:fill markers stroke"
           d="m -776.72228,-418.94216 c -0.94302,-0.23867 -2.26838,-0.71648 -2.94525,-1.0618 -2.83829,-1.44799 -37.12998,-35.3495 -165.24135,-163.36119 l -106.87302,-106.78984 13.1643,-13.1526 13.1643,-13.1526 105.6572,105.74502 c 116.83192,116.92907 162.91625,163.51793 164.25839,166.05665 1.74677,3.30413 2.33343,8.26782 1.45369,12.29944 -1.40042,6.41768 -5.61646,11.27127 -11.42567,13.15346 -2.05874,0.66703 -8.97588,0.82957 -11.21259,0.26346 z"
           id="path44" /></g><g
         id="g54"
         style="fill:#faf0a3;fill-opacity:1;stroke:#faf0a3;stroke-opacity:1"><path
           style="fill:#faf0a3;fill-opacity:1;stroke:#faf0a3;stroke-width:8.31496;stroke-linecap:round;stroke-linejoin:round;stroke-miterlimit:6;stroke-opacity:1;paint-order:fill markers stroke"
           d="m -1098.2138,-225.82902 c -15.0934,-0.75036 -29.5758,-3.78548 -43.3133,-9.07722 -39.7473,-15.31093 -71.3085,-48.59985 -84.9917,-89.6441 -9.464,-28.38868 -9.6437,-58.86117 -0.5152,-87.3732 1.5537,-4.85304 5.1326,-14.39249 5.924,-15.79035 1.0536,-1.8611 1.9462,-1.84175 4.331,0.0939 0.6032,0.48961 5.8527,5.65082 11.6655,11.46937 l 10.5688,10.57918 -1.0589,2.98487 c -3.4911,9.84008 -5.2239,18.25391 -5.8285,28.30069 -0.1901,3.15936 -0.1053,10.0332 0.1613,13.06864 1.1988,13.64878 4.7913,26.25084 11.0489,38.75786 17.1568,34.29113 51.0221,58.98167 87.154,63.54239 5.8564,0.73922 14.4627,0.98101 19.5656,0.5497 9.2935,-0.78551 16.9989,-2.43577 25.9063,-5.54839 l 3.503,-1.22406 9.9452,9.98601 c 9.7954,9.83545 14.4883,14.71969 14.4883,15.07877 0,1.80185 -21.2991,8.87675 -35.2853,11.72069 -5.2064,1.05866 -12.3436,1.98149 -18.4081,2.38015 -3.3293,0.21885 -11.728,0.30085 -14.8609,0.14508 z"
           id="path41" /><path
           style="fill:#faf0a3;fill-opacity:1;stroke:#faf0a3;stroke-width:8.31498;stroke-linecap:round;stroke-linejoin:round;stroke-miterlimit:6;stroke-opacity:1;paint-order:fill markers stroke"
           d="m -1133.1962,-484.52874 c -0.3766,-0.085 -0.5931,-0.16399 -0.9937,-0.36256 -1.3068,-0.64763 -2.4886,-1.72693 -6.7988,-6.20918 -1.0662,-1.10878 -4.8664,-4.95501 -8.4449,-8.54719 -3.5785,-3.59217 -6.5063,-6.54118 -6.5063,-6.55335 0,-0.0122 5.9439,-5.96602 13.2087,-13.23078 l 13.2087,-13.20864 11.7243,11.72438 11.7243,11.72437 -1.7367,1.74566 c -0.9552,0.96012 -4.3083,4.32485 -7.4514,7.47719 -3.1431,3.15235 -6.8248,6.87411 -8.1815,8.27059 -3.3006,3.39739 -4.5053,4.58384 -5.519,5.43575 -1.0536,0.88541 -1.9483,1.43097 -2.7257,1.66211 -0.4176,0.12415 -1.1264,0.15782 -1.508,0.0716 z"
           id="path45" /><path
           style="fill:#faf0a3;fill-opacity:1;stroke:#faf0a3;stroke-width:8.31498;stroke-linecap:round;stroke-linejoin:round;stroke-miterlimit:6;stroke-opacity:1;paint-order:fill markers stroke"
           d="m -1037.202,-580.52729 c -0.9478,-0.21244 -1.9771,-0.85671 -3.3419,-2.09172 -0.6724,-0.60855 -2.1686,-2.11745 -4.3498,-4.38697 -1.0757,-1.11924 -4.0065,-4.09328 -6.5129,-6.609 -2.5063,-2.51571 -5.4562,-5.47718 -6.5551,-6.58105 l -1.9982,-2.00702 13.2179,-13.21794 13.2179,-13.21794 11.7151,11.71508 c 6.4433,6.44329 11.7151,11.72514 11.7151,11.73744 0,0.0123 -3.3479,3.38127 -7.4398,7.48662 -4.0918,4.10534 -8.5593,8.61517 -9.9276,10.02184 -3.3303,3.42379 -4.4938,4.56909 -5.5027,5.41695 -1.0551,0.88667 -1.9521,1.43334 -2.7257,1.66116 -0.4217,0.12417 -1.1303,0.15816 -1.5123,0.0725 z"
           id="path46" /><path
           style="fill:#faf0a3;fill-opacity:1;stroke:#faf0a3;stroke-width:8.31498;stroke-linecap:round;stroke-linejoin:round;stroke-miterlimit:6;stroke-opacity:1;paint-order:fill markers stroke"
           d="m -858.31568,-401.56217 c -0.43878,-0.10622 -1.11384,-0.43525 -1.65886,-0.80854 -1.12041,-0.76738 -2.09954,-1.69553 -5.4739,-5.18886 -1.30897,-1.35512 -5.33094,-5.43186 -8.93772,-9.05942 l -6.55778,-6.59557 13.21129,-13.21121 13.21128,-13.2112 11.71954,11.71963 11.71954,11.71963 -7.12552,7.14761 c -3.91904,3.93118 -8.33741,8.39355 -9.81859,9.91638 -5.32841,5.47818 -6.40079,6.45619 -7.91063,7.21448 -0.83028,0.41699 -1.63322,0.53752 -2.37865,0.35707 z"
           id="path47" /><path
           style="fill:#faf0a3;fill-opacity:1;stroke:#faf0a3;stroke-width:8.31494;stroke-linecap:round;stroke-linejoin:round;stroke-miterlimit:6;stroke-opacity:1;paint-order:fill markers stroke"
           d="m -954.54553,-305.65071 c -1.40836,-0.45041 -2.59378,-1.46325 -6.69348,-5.71898 -1.46399,-1.51969 -5.59402,-5.70444 -9.17787,-9.29944 l -6.51607,-6.53635 13.19745,-13.1973 13.19746,-13.1973 11.7089,11.70909 11.7089,11.70908 -8.01374,8.06191 c -4.40755,4.43405 -9.08851,9.16676 -10.40212,10.51714 -4.02322,4.13585 -5.51553,5.40371 -6.96052,5.91368 -0.62669,0.22117 -1.43045,0.23626 -2.04891,0.0385 z"
           id="path48" /><path
           style="fill:#faf0a3;fill-opacity:1;stroke:#faf0a3;stroke-width:8.31495;stroke-linecap:round;stroke-linejoin:round;stroke-miterlimit:6;stroke-opacity:1;paint-order:fill markers stroke"
           d="m -768.63366,-503.60238 c -0.67381,-0.33164 -4.27033,-3.77104 -12.35497,-11.81524 l -11.40446,-11.34743 1.52655,-4.51532 c 3.73622,-11.05121 5.35588,-20.6742 5.3582,-31.83514 10e-4,-5.5306 -0.22671,-9.1117 -0.87909,-13.81567 -3.96525,-28.59121 -20.67343,-56.18963 -45.21522,-74.68609 -6.29128,-4.74157 -11.52165,-7.97518 -18.45676,-11.41067 -19.09963,-9.46153 -38.63618,-12.92691 -58.82508,-10.43435 -6.21118,0.76684 -14.48285,2.79061 -21.0165,5.14195 l -2.9571,1.06421 -11.12167,-11.13761 c -6.17458,-6.18342 -11.41255,-11.60229 -11.77558,-12.18227 -0.86625,-1.38389 -0.85273,-2.05612 0.0553,-2.74868 0.87265,-0.6656 9.05139,-3.8394 14.66798,-5.69199 31.1403,-10.27136 63.40255,-9.92539 93.22036,0.99967 28.65319,10.49836 53.49788,30.04768 70.52373,55.49242 13.63208,20.37282 21.48442,42.70136 23.6549,67.26386 0.37947,4.29432 0.49785,13.80315 0.22877,18.37624 -0.95104,16.16334 -3.97004,29.95501 -10.10264,46.15182 -2.175,5.74436 -2.84007,7.12566 -3.56331,7.40064 -0.64938,0.24689 -0.43826,0.2834 -1.56337,-0.27035 z"
           id="path49" /></g><g
         id="g52"
         style="fill:#f6ec8a;fill-opacity:1;stroke:#f6ec8a;stroke-opacity:1"><path
           style="fill:#f6ec8a;fill-opacity:1;stroke:#f6ec8a;stroke-width:8.31496;stroke-linecap:round;stroke-linejoin:round;stroke-miterlimit:6;stroke-opacity:1;paint-order:fill markers stroke"
           d="m -1329.7901,-249.07671 c -5.353,-3.87867 -25.4829,-24.35959 -25.4625,-25.90645 0.012,-0.94432 75.4303,-85.11267 88.1682,-98.3981 1.4101,-1.47073 1.6538,-1.66821 1.7472,-1.41581 0.264,0.7138 0.4687,3.91793 0.6671,10.44338 0.3179,10.45314 0.9353,16.75677 2.5531,26.0626 1.174,6.75357 2.2809,11.44256 4.6444,19.67385 0.878,3.05784 1.5666,5.58372 1.5303,5.61307 -0.097,0.0783 -14.4224,12.91881 -26.9501,24.15647 -30.4114,27.27974 -45.2929,40.32996 -45.9731,40.3158 -0.098,-0.002 -0.5139,-0.2472 -0.9246,-0.54481 z"
           id="path40" /><path
           style="fill:#f6ec8a;fill-opacity:1;stroke:#f6ec8a;stroke-width:8.31497;stroke-linecap:round;stroke-linejoin:round;stroke-miterlimit:6;stroke-opacity:1;paint-order:fill markers stroke"
           d="m -809.50891,-714.73119 c -0.24644,-0.091 -4.54789,-2.15173 -9.55878,-4.5794 -5.01089,-2.42767 -11.32864,-5.28688 -14.03945,-6.35381 -14.71328,-5.79088 -29.78803,-9.38893 -46.7484,-11.15794 -6.43059,-0.67072 -26.1647,-0.76408 -32.41022,-0.15333 -9.5166,0.93064 -15.40078,1.93248 -25.95026,4.41827 -6.49614,1.53071 -7.80417,1.71279 -7.80417,1.08637 0,-0.25579 2.33302,-2.82623 11.21795,-12.35954 24.16043,-25.92353 47.69402,-53.98637 67.97884,-81.062 42.83266,-57.17185 74.4935,-113.34687 97.66272,-173.2805 3.95787,-10.23813 5.59833,-14.16113 5.92168,-14.16113 1.87749,0 172.0884,169.52938 172.0884,171.39935 0,0.36965 -6.69267,3.31318 -18.81885,8.27678 -20.15462,8.24988 -33.47949,14.2661 -51.97585,23.46725 -48.02496,23.89037 -90.12804,50.50913 -130.83575,82.71807 -8.16017,6.45652 -11.02529,8.64427 -13.8343,10.5636 -2.10216,1.43634 -2.14577,1.45409 -2.89356,1.17796 z m -24.32212,-47.80544 c 4.69068,-5.46493 23.49676,-29.58806 23.36502,-29.97101 -0.10023,-0.29132 -16.79137,-12.69844 -20.31528,-15.10108 -2.88436,-1.96658 -4.4579,-2.49598 -5.56756,-1.87314 -0.43163,0.24227 -2.86966,3.20786 -5.41787,6.59022 -2.5482,3.38236 -6.86626,8.95642 -9.59568,12.38681 -5.79823,7.28733 -6.23651,7.95219 -6.23799,9.46305 -0.002,2.20276 0.50771,2.7644 8.21346,9.04719 7.10996,5.79704 13.66192,10.87701 14.02851,10.87684 0.17031,-8e-5 0.85763,-0.63858 1.52739,-1.41888 z m 45.76952,-63.52617 c 1.00045,-0.5252 2.67343,-2.28292 3.86161,-4.05722 1.60763,-2.40069 9.74366,-15.53854 13.13405,-21.20854 18.72816,-31.32055 44.7503,-80.6117 45.95928,-87.05611 l 0.20144,-1.07378 -4.58953,-2.20993 c -6.45695,-3.10913 -22.3832,-10.32605 -22.78745,-10.32605 -0.18516,0 -4.52613,8.43487 -9.6466,18.74416 -17.52462,35.28314 -29.39819,56.50839 -45.4433,81.23464 -6.03247,9.2963 -6.37675,10.8773 -2.963,13.60667 1.92973,1.54286 17.23499,11.59306 18.59945,12.21333 1.44535,0.65704 2.59623,0.69865 3.67405,0.13283 z"
           id="path50" /></g><g
         id="g51"
         style="fill:#efe27a;fill-opacity:1;stroke:#efe27a;stroke-opacity:1"><path
           style="fill:#efe27a;fill-opacity:1;stroke:#efe27a;stroke-width:8.31496;stroke-linecap:round;stroke-linejoin:round;stroke-miterlimit:6;stroke-opacity:1;paint-order:fill markers stroke"
           d="m -1348.5459,-171.22814 c -6.8769,-6.6108 -18.9485,-18.59443 -52.3535,-51.97192 l -34.9852,-34.95638 2.774,-2.78747 c 1.5257,-1.5331 3.7263,-3.72117 4.8902,-4.86237 5.6129,-5.50338 9.6735,-8.1323 14.0026,-9.06572 1.3221,-0.28506 4.2043,-0.25814 5.6488,0.0528 7.0339,1.51392 15.2895,7.45006 30.5052,21.93475 8.3002,7.90144 24.3586,24.01043 31.1104,31.20837 11.6678,12.43871 16.8631,19.9027 18.2302,26.19097 0.1523,0.70082 0.1944,1.33776 0.192,2.90429 0,1.74437 -0.036,2.13772 -0.2514,3.0099 -1.1587,4.68403 -4.5057,9.37303 -12.4664,17.46492 -1.9673,1.99975 -3.9537,3.86842 -4.1122,3.86842 -0.041,0 -1.4737,-1.34574 -3.1847,-2.99052 z"
           id="path39" /><path
           style="fill:#efe27a;fill-opacity:1;stroke:#efe27a;stroke-width:8.31495;stroke-linecap:round;stroke-linejoin:round;stroke-miterlimit:6;stroke-opacity:1;paint-order:fill markers stroke"
           d="m -535.33993,-834.54365 c -1.66257,-0.2582 -3.85323,-0.93643 -4.64687,-1.43871 -5.28803,-3.34659 -202.65109,-200.49884 -224.89536,-224.65514 -2.63837,-2.8651 -3.07997,-3.5331 -3.86843,-5.8512 -1.03706,-3.0491 -1.19918,-7.0348 -0.40675,-9.9997 0.83491,-3.124 3.13153,-6.8234 5.60228,-9.0243 4.65851,-4.1496 10.90547,-5.7167 16.69824,-4.1888 3.12767,0.8249 4.02834,1.383 7.58289,4.6985 11.09418,10.3479 46.72106,45.6059 106.98615,105.87836 69.82207,69.83059 114.38751,115.0121 116.83032,118.44539 0.28555,0.40135 0.74576,1.39939 1.02269,2.21791 2.2588,6.6764 0.20043,14.91238 -4.93854,19.76022 -2.23066,2.10429 -4.27317,3.1311 -7.71808,3.88005 -1.79916,0.39114 -6.49845,0.5492 -8.24854,0.27742 z"
           id="path51" /></g><path
         style="fill:#1f1915;fill-opacity:1"
         d="m -1412.5149,-191.70422 -66.4972,-66.52326 19,-18.85014 c 24.3857,-24.19339 30.5769,-27.57389 50.5,-27.57389 11.2501,0 17.2012,1.41844 26.2669,6.26063 4.3022,2.29792 4.887,2.39042 6,0.94891 0.6782,-0.87845 29.5831,-33.14906 64.2331,-71.71247 53.1506,-59.15344 63.5751,-71.24181 66.6783,-77.3209 l 3.6784,-7.20563 -22.1664,-22.24635 -22.1663,-22.24634 11.9784,-12.00967 11.9783,-12.00966 -17.2332,-17.23323 -17.2332,-17.23324 -10.5132,10.4774 -10.5132,10.47739 -10.74,-10.74007 -10.7401,-10.74008 31.7442,-31.74418 31.7442,-31.74419 10.74,10.74007 10.7401,10.74008 -10.4774,10.51317 -10.4774,10.51317 17.2333,17.23323 17.2332,17.23323 12.0091,-11.97786 12.0092,-11.97786 19.9992,19.98045 19.9992,19.98044 13.2406,-13.24062 13.2406,-13.24062 -19.9804,-19.9992 -19.9805,-19.99919 11.9779,-12.00915 11.9778,-12.00914 -17.2332,-17.23323 -17.2332,-17.23324 -10.5132,10.4774 -10.5132,10.47739 -10.74,-10.74007 -10.7401,-10.74008 31.7442,-31.74418 31.7442,-31.74419 10.74,10.74007 10.7401,10.74008 -10.4774,10.51317 -10.4774,10.51317 17.2333,17.23323 17.2332,17.23323 12.0091,-11.97786 12.0092,-11.97786 19.9992,19.98045 19.9992,19.98044 13.2406,-13.24062 13.2406,-13.24062 -19.9804,-19.9992 -19.9805,-19.99919 11.9779,-12.00915 11.9778,-12.00914 -17.2332,-17.23323 -17.2332,-17.23324 -10.5132,10.4774 -10.5132,10.47739 -10.74,-10.74007 -10.7401,-10.74008 31.7442,-31.74418 31.7442,-31.74419 10.74,10.74007 10.7401,10.74008 -10.4774,10.51317 -10.4774,10.51317 17.2333,17.23323 17.2332,17.23323 12.0081,-11.97686 12.0082,-11.97687 16.2589,16.2365 c 8.9424,8.93008 16.55028,16.2365 16.90643,16.2365 0.56419,0 45.70352,-49.90749 66.93004,-74 56.58378,-64.22366 102.53956,-141.25882 132.85513,-222.70353 l 5.28688,-14.2035 -3.1279,-3.9493 c -31.73122,-40.064 14.3445,-97.1852 60.02385,-74.4132 12.96337,6.4625 238.46878,232.27116 243.94148,244.26953 20.2374,44.36854 -31.90892,87.80865 -72.62886,60.50295 l -6.67895,-4.47873 -8.25111,2.91229 c -69.16712,24.41296 -150.13795,69.98357 -204.99192,115.37001 l -2.97175,2.45884 10.47175,10.94043 c 50.92336,53.20254 63.92252,132.74728 32.05215,196.13429 -5.13475,10.21252 -5.26733,9.27036 2.42573,17.23898 43.84228,45.41272 -20.54307,113.69082 -67.3365,71.40768 l -5.33036,-4.81658 -13.10889,13.10889 -13.10889,13.10889 4.74805,5.07605 c 41.6881,44.56795 -23.897,110.45904 -69.19991,69.52275 l -5.33036,-4.81658 -13.08456,13.08456 -13.08456,13.08456 4.81659,5.33036 c 42.25867,46.76635 -25.30588,110.75624 -71.21538,67.44755 -8.28788,-7.81835 -7.23228,-7.66473 -17.43128,-2.53678 -76.0616,38.24301 -171.9124,11.56885 -220.5781,-61.38431 l -6.54,-9.80391 -2.611,2.38781 c -1.436,1.3133 -15.9993,14.39869 -32.3629,29.07865 l -29.7519,26.69084 2.8895,5.72526 c 8.1802,16.2084 8.3373,34.17616 0.4382,50.09383 -2.4642,4.96567 -39.0735,44.13142 -41.2509,44.13142 -0.3182,0 -30.5024,-29.93546 -67.0758,-66.52325 z m 74.008,16.85855 c 17.2616,-18.45269 14.9724,-24.07705 -26.6725,-65.53151 -40.1148,-39.93134 -46.6193,-42.25408 -65.3134,-23.32362 l -5.4808,5.55001 44.9766,44.98491 c 24.7371,24.7417 45.2644,44.98491 45.6161,44.98491 0.3517,0 3.445,-2.99911 6.874,-6.6647 z m 270.6138,-52.84995 c 13.4776,-2.2986 38.381,-10.32013 38.381,-12.36276 0,-0.35893 -5.5319,-6.17123 -12.2931,-12.91622 l -12.2932,-12.26362 -4.2426,1.49687 c -80.3868,28.36213 -165.9728,-57.2239 -137.6107,-137.61075 l 1.4969,-4.2426 -12.2637,-12.29313 c -14.5926,-14.62779 -12.8092,-14.25685 -17.0345,-3.54314 -40.6047,102.95999 47.3168,212.24731 155.8599,193.73535 z m 113.86063,-0.77218 c 7.88928,-4.46824 10.99909,-16.03696 6.5867,-24.50301 -1.09755,-2.10587 -59.90383,-61.65103 -135.99833,-137.7071 l -134.0647,-133.99694 -13.2486,13.2486 -13.2486,13.2486 133.997,134.06285 c 73.6983,73.73457 135.57192,134.91393 137.49692,135.95414 5.01955,2.71242 13.39393,2.57323 18.47961,-0.30714 z m -337.61553,-52.3981 35.8735,-32.18494 -2.4187,-8.31506 c -3.7473,-12.88238 -6.296,-29.77458 -6.3933,-42.37354 -0.049,-6.29284 -0.4279,-11.44153 -0.8428,-11.44153 -0.8965,0 -89.4148,98.52975 -89.9542,100.12817 -0.4928,1.45985 25.0146,26.99268 26.6167,26.64335 0.685,-0.14933 17.3884,-14.75474 37.1188,-32.45645 z m 211.1359,-10.06086 c 0,-0.98056 -87.2653,-88.25421 -88.2457,-88.25421 -1.3919,0 -0.7801,20.98756 0.825,28.30259 6.0894,27.75146 29.7727,51.91962 57.5656,58.74414 7.4349,1.82564 29.8551,2.73242 29.8551,1.20748 z m 153.48026,-39.26333 -23.48085,-23.48084 -26.47835,26.47835 c 7.79812,7.82518 15.61319,15.63358 23.37146,23.49835 8.93852,-8.75537 17.75032,-17.63879 26.58774,-26.49586 z m 68.99937,5.72229 c 7.88928,-4.46824 10.99909,-16.03696 6.5867,-24.50301 -1.09755,-2.10587 -59.90384,-61.65103 -135.99834,-137.7071 l -134.06469,-133.99694 -13.2486,13.2486 -13.2486,13.2486 133.997,134.06285 c 73.69829,73.73457 135.57192,134.91393 137.49692,135.95414 5.01955,2.71242 13.39393,2.57323 18.47961,-0.30714 z m -170.21593,-106.94953 -55.7469,-55.75359 -13.2637,13.23636 -13.2637,13.23637 55.747,55.75358 55.74687,55.75359 13.26367,-13.23636 13.26366,-13.23637 z m 197.21656,5.22724 -23.48085,-23.48084 -26.47835,26.47835 c 7.80718,7.83068 15.61891,15.65683 23.41521,23.49835 8.90203,-8.77762 17.71385,-17.64608 26.54399,-26.49586 z m 68.99937,5.72229 c 7.88928,-4.46824 10.99909,-16.03696 6.5867,-24.50301 -1.09755,-2.10587 -59.90384,-61.65103 -135.99834,-137.7071 l -134.06469,-133.99694 -13.2486,13.2486 -13.2486,13.2486 133.99697,134.06285 c 73.69832,73.73457 135.57195,134.91393 137.49695,135.95414 5.01955,2.71242 13.39393,2.57323 18.47961,-0.30714 z m -170.21595,-106.94953 -55.74692,-55.75359 -13.26366,13.23636 -13.2637,13.23637 55.74695,55.75358 55.74692,55.75359 13.26367,-13.23636 13.26366,-13.23637 z m -173.78338,18.22724 -23.4809,-23.48084 -26.4783,26.47835 c 7.8109,7.83306 15.6214,15.66651 23.4333,23.49865 8.8868,-8.78706 17.6987,-17.64934 26.5259,-26.49616 z m 342.35896,-0.74088 c 46.50113,-117.61702 -68.47222,-232.59038 -186.08924,-186.08924 -9.55839,3.77901 -10.01411,2.11058 4.54313,16.63287 l 12.29314,12.26362 4.2426,-1.49687 c 80.38684,-28.36213 165.97288,57.2239 137.61075,137.61075 l -1.49688,4.2426 12.26362,12.29313 c 14.52229,14.55725 12.85386,14.10153 16.63288,4.54314 z m -53.83924,-53.80259 c 0,-44.27362 -34.1738,-78.44741 -78.44741,-78.44741 -13.40346,0 -17.15049,-5.1076 33.19314,45.24579 50.32851,50.33825 45.25427,46.61544 45.25427,33.20162 z m -192.51972,-41.45653 -23.4809,-23.48084 -26.4783,26.47835 c 7.8327,7.83941 15.609,15.7365 23.5826,23.43349 5.1126,-5.12026 5.9363,-5.94521 26.3766,-26.431 z m 215.16713,-119.39522 c 54.23712,-43.6272 120.04411,-81.91905 186.60768,-108.58351 9.46268,-3.79062 17.32662,-7.2573 17.47543,-7.70373 0.49238,-1.47714 -171.63102,-172.81285 -172.57209,-171.78235 -0.48916,0.5357 -2.1465,4.3489 -3.68296,8.4739 -34.28764,92.05316 -92.16253,180.43045 -176.30946,269.23167 -4.52707,4.77747 -4.19587,4.95729 4.83399,2.62464 38.60481,-9.97267 83.0615,-5.27188 118,12.47717 5.775,2.93375 10.99787,5.40889 11.60639,5.50032 0.60851,0.0914 6.92697,-4.51572 14.04102,-10.23811 z m -64.30578,-56.09456 c 2.06062,-2.424 15.51967,-18.50085 23.46655,-30.32616 8.48359,6.08614 16.84946,12.33381 25.23698,18.55103 l -12.12914,15.63702 c -6.67102,8.60035 -12.41869,15.61251 -12.77258,15.58258 -0.53959,-0.0456 -13.83031,-10.5865 -23.80181,-19.44447 z m 45.12303,-60.48269 c 0,0 4.13227,-6.44442 9.59006,-14.99493 13.83882,-21.68074 26.91825,-45.07037 40.08753,-71.68765 l 11.95556,-24.16417 13.20109,5.98747 c 7.2606,3.29311 13.55148,6.32736 13.97972,6.74279 1.99461,1.93493 -33.61848,68.71595 -52.92569,99.24528 -5.67255,8.96967 -10.11922,16.09272 -10.11922,16.09272 -7.49832,-4.90872 -17.89077,-11.83644 -25.76905,-17.22151 z m 292.01495,4.69476 c 7.60155,-4.30528 10.95413,-15.93075 6.92488,-24.01283 -2.20855,-4.43004 -222.98493,-225.35397 -227.61466,-227.76677 -15.98148,-8.3289 -33.25178,8.7247 -24.96208,24.6488 2.39612,4.6029 223.08126,225.38993 227.67225,227.77743 4.5548,2.36869 13.20496,2.05758 17.97961,-0.64663 z"
         id="path38" /></g></g></svg>
