<?xml version="1.0" encoding="UTF-8" standalone="no"?>
<!-- Created with Inkscape (http://www.inkscape.org/) -->

<svg
   width="135.2444mm"
   height="135.38959mm"
   viewBox="0 0 135.2444 135.38959"
   version="1.1"
   id="svg1"
   xml:space="preserve"
   xmlns="http://www.w3.org/2000/svg"
   xmlns:svg="http://www.w3.org/2000/svg"><defs
     id="defs1" /><g
     id="layer1"
     transform="translate(611.11581,525.99707)"><g
       id="g23"
       transform="translate(23.064894,-79.937234)"><path
         style="fill:#ca7845;fill-opacity:1;stroke:#ca7845;stroke-width:1;stroke-linecap:round;stroke-linejoin:round;stroke-miterlimit:6;stroke-dasharray:none;stroke-opacity:1;paint-order:fill markers stroke"
         d="m -536.41429,-408.57087 c -1.29653,-1.34504 -2.35836,-2.45325 -2.35958,-2.46269 0,-0.01 0.84736,-0.77698 1.88577,-1.70559 1.03838,-0.92863 2.21266,-1.97871 2.60945,-2.33354 l 0.72144,-0.64514 2.04084,2.12329 c 1.12244,1.16779 2.05269,2.13963 2.06719,2.15963 0.0241,0.0331 -0.18108,0.27292 -2.23891,2.61945 -1.24592,1.42068 -2.28859,2.60713 -2.31706,2.63655 l -0.0518,0.0535 z"
         id="path16" /><path
         style="fill:#ca7845;fill-opacity:1;stroke:#ca7845;stroke-width:1;stroke-linecap:round;stroke-linejoin:round;stroke-miterlimit:6;stroke-dasharray:none;stroke-opacity:1;paint-order:fill markers stroke"
         d="m -556.57823,-380.42466 c -0.36029,-0.0968 -1.1819,-0.70286 -2.06415,-1.52262 -0.61394,-0.57044 -1.27849,-1.27127 -2.48711,-2.62298 -1.2292,-1.37472 -1.35541,-1.51042 -2.21253,-2.37886 -0.64325,-0.65178 -0.77697,-0.80794 -0.88952,-1.03879 -0.0926,-0.18983 -0.10354,-0.28617 -0.0518,-0.45537 0.15033,-0.49133 0.78864,-1.20833 1.79022,-2.01083 0.51647,-0.41384 0.94893,-0.72925 2.40916,-1.75718 0.33669,-0.23699 0.73129,-0.5194 0.87686,-0.62759 l 0.26471,-0.19667 1.50395,1.50786 c 0.82719,0.82931 2.41424,2.42369 3.52682,3.54304 1.11254,1.11937 2.06462,2.06954 2.11574,2.11148 l 0.0929,0.0763 -0.0913,0.12986 c -0.0502,0.0714 -0.36653,0.53416 -0.70297,1.02833 -1.02294,1.50249 -1.4577,2.10928 -1.91638,2.6747 -0.5832,0.71892 -1.14083,1.23351 -1.56292,1.44221 -0.26612,0.13161 -0.39566,0.15251 -0.60174,0.0971 z"
         id="path17" /><path
         style="fill:#ca7845;fill-opacity:1;stroke:#ca7845;stroke-width:1;stroke-linecap:round;stroke-linejoin:round;stroke-miterlimit:6;stroke-dasharray:none;stroke-opacity:1;paint-order:fill markers stroke"
         d="m -549.99442,-389.74511 c -0.81135,-0.81415 -4.89916,-4.92871 -5.58726,-5.6238 l -0.34557,-0.34909 0.038,-0.0365 c 0.0209,-0.0201 1.28363,-1.14964 2.80599,-2.51007 l 2.76794,-2.47354 0.0457,0.0483 c 0.0251,0.0266 1.38097,1.43444 3.01294,3.12857 1.63201,1.6941 2.96874,3.08464 2.97056,3.09006 0.003,0.006 -0.82957,0.95872 -1.84756,2.11839 -1.01798,1.15967 -2.11283,2.40808 -2.43297,2.77426 -0.32012,0.36619 -0.58529,0.66622 -0.5892,0.66675 -0.004,0 -0.3813,-0.37446 -0.8386,-0.83333 z"
         id="path18" /><path
         style="fill:#ca7845;fill-opacity:1;stroke:#ca7845;stroke-width:1;stroke-linecap:round;stroke-linejoin:round;stroke-miterlimit:6;stroke-dasharray:none;stroke-opacity:1;paint-order:fill markers stroke"
         d="m -544.46394,-400.45314 c -1.56287,-1.62372 -2.84157,-2.95767 -2.84157,-2.96429 0,-0.007 0.69119,-0.63005 1.53598,-1.38533 0.84479,-0.75528 2.08248,-1.86195 2.75045,-2.45922 0.66794,-0.5973 1.21872,-1.08598 1.22396,-1.08598 0.005,0 1.09236,1.12318 2.41583,2.49597 1.3235,1.37279 2.46492,2.55664 2.53654,2.63081 l 0.1302,0.13483 -0.30499,0.34689 c -0.16774,0.19082 -1.25285,1.42769 -2.41135,2.74865 -1.15854,1.32093 -2.12598,2.42155 -2.14996,2.44581 l -0.0435,0.0441 z"
         id="path19" /><path
         style="fill:#ca7845;fill-opacity:1;stroke:#ca7845;stroke-width:1;stroke-linecap:round;stroke-linejoin:round;stroke-miterlimit:6;stroke-dasharray:none;stroke-opacity:1;paint-order:fill markers stroke"
         d="m -595.0482,-335.05796 c -0.38698,-0.38325 -1.54559,-1.525 -2.57471,-2.53722 -1.0291,-1.01222 -2.29209,-2.25655 -2.80665,-2.76513 -0.51456,-0.50861 -1.79642,-1.77202 -2.84856,-2.8076 -7.05268,-6.94164 -7.14444,-7.03252 -7.19338,-7.1255 -0.0584,-0.11094 -0.0493,-0.40417 0.0193,-0.62679 0.27924,-0.90459 1.26622,-1.95694 2.30074,-2.45314 0.61047,-0.29282 1.16753,-0.36087 1.42721,-0.17439 0.0725,0.0521 9.96601,9.84888 14.31735,14.17738 1.431,1.42346 1.41655,1.4056 1.41655,1.75586 0,0.2658 -0.0573,0.48503 -0.21296,0.8152 -0.14513,0.30774 -0.24069,0.46451 -0.45966,0.75423 -0.6713,0.88812 -1.74165,1.6085 -2.47769,1.66753 l -0.20405,0.0164 z"
         id="path20" /><path
         style="fill:#335773;fill-opacity:1;stroke:#335773;stroke-width:1;stroke-linecap:round;stroke-linejoin:round;stroke-miterlimit:6;stroke-dasharray:none;stroke-opacity:1;paint-order:fill markers stroke"
         d="m -577.48757,-359.32443 c -0.0461,-0.006 -0.22201,-0.0251 -0.39097,-0.0421 -1.10646,-0.11067 -2.23925,-0.45823 -3.15574,-0.96821 -1.96829,-1.09525 -3.38296,-3.02721 -3.99259,-5.45248 -0.71572,-2.84726 -0.19039,-5.94673 1.38213,-8.15467 1.33022,-1.86778 3.28515,-2.99067 5.76056,-3.30886 1.152,-0.14808 2.47632,-0.0953 3.52782,0.1405 1.89654,0.42534 3.4498,1.4333 4.58129,2.97286 0.30724,0.41806 0.52594,0.78422 0.79232,1.32654 0.55203,1.12387 0.86964,2.31272 0.97867,3.66318 0.0452,0.55991 0.0177,1.62444 -0.0559,2.17355 -0.36404,2.71137 -1.6597,4.94094 -3.64066,6.26481 -1.07056,0.71546 -2.22065,1.12916 -3.70637,1.33326 -0.30416,0.0418 -1.86785,0.0806 -2.08055,0.0517 z"
         id="path21" /><path
         style="fill:#ecd879;fill-opacity:1;stroke:#ecd879;stroke-width:0.999998;stroke-linecap:round;stroke-linejoin:round;stroke-miterlimit:6;stroke-dasharray:none;stroke-opacity:1;paint-order:fill markers stroke"
         d="m -594.98737,-314.74182 c -4.89405,-0.38293 -9.41509,-2.02607 -14.0996,-5.12432 -6.43845,-4.25833 -12.77498,-11.19902 -17.59693,-19.27468 -2.38199,-3.98928 -3.72988,-9.37128 -3.42744,-13.68544 0.15256,-2.17594 0.61918,-4.411 1.31731,-6.30992 0.72726,-1.97808 2.16278,-4.48 3.59669,-6.26861 3.2861,-4.09887 8.96284,-7.58545 14.13566,-8.68188 0.97475,-0.20659 1.70976,-0.32843 4.3444,-0.72004 2.60131,-0.38666 3.87972,-0.62624 5.2528,-0.9843 3.90335,-1.01796 6.2702,-2.48867 8.2437,-5.12255 0.23308,-0.31107 1.02712,-1.46732 1.76456,-2.56947 3.19543,-4.77573 5.06939,-7.2344 6.882,-9.02925 3.89403,-3.85585 8.37994,-5.61057 12.77596,-4.99742 2.05153,0.28614 3.9755,0.94136 5.69116,1.9382 0.6113,0.35518 1.80711,1.22769 1.80711,1.31855 0,0.0344 -0.37254,0.35812 -0.82786,0.71927 -1.68613,1.33747 -2.71888,2.71042 -3.07512,4.08803 -0.15896,0.61483 -0.16139,1.75281 -0.005,2.35323 0.24145,0.92702 0.69434,1.63348 1.76725,2.75672 0.54745,0.57311 1.62095,1.73468 2.38557,2.58122 3.05895,3.38682 4.84825,4.83103 6.5056,5.25092 0.59751,0.15137 1.67433,0.15124 2.31703,-2.4e-4 1.45167,-0.34226 3.02356,-1.57813 4.38833,-3.45027 0.18031,-0.24733 0.3456,-0.45035 0.36732,-0.45112 0.0473,-0.003 0.46657,0.56209 0.87085,1.17102 0.99729,1.50212 1.74622,3.74859 2.09566,6.28595 0.18362,1.33326 0.12195,3.93025 -0.12004,5.05531 -0.54571,2.53715 -1.66995,4.67702 -3.35836,6.39239 -1.52818,1.5526 -2.71065,2.36715 -7.34174,5.0574 -3.12779,1.817 -4.55988,2.83451 -6.11785,4.34684 -1.51392,1.46958 -2.48714,2.80509 -3.32695,4.56544 -1.04712,2.19488 -1.60753,4.34462 -2.24896,8.62703 -0.7929,5.29352 -1.14522,6.62194 -2.42562,9.14532 -0.57745,1.13806 -1.66277,2.82983 -2.46896,3.84855 -4.35004,5.49691 -11.07379,9.95101 -16.6325,11.01807 -0.6535,0.12544 -2.64112,0.21223 -3.43604,0.15005 z m 2.09793,-15.75808 c 2.13881,-0.53385 4.31985,-2.3821 5.33194,-4.51837 0.57256,-1.20859 0.7634,-2.78114 0.47064,-3.87829 -0.29488,-1.10508 -0.53229,-1.41499 -2.91981,-3.81156 -6.5573,-6.58215 -14.19019,-14.06499 -14.59185,-14.30496 -2.46629,-1.47357 -6.10148,-0.41577 -8.38883,2.4411 -0.60243,0.75242 -1.24028,1.98673 -1.42547,2.75841 -0.15695,0.6541 -0.16033,1.87759 -0.007,2.46708 0.13941,0.53523 0.48866,1.24868 0.80246,1.63931 0.1239,0.15425 1.6655,1.70047 3.4258,3.43603 1.76027,1.73559 5.39874,5.32384 8.08548,7.97394 2.68671,2.65009 5.06759,4.95675 5.29082,5.12588 1.05622,0.80025 2.45255,1.03909 3.92562,0.67143 z m 18.08385,-24.88036 c 4.10594,-0.47916 7.54229,-2.88856 9.39673,-6.58849 1.95501,-3.90057 1.98525,-8.60259 0.0809,-12.57832 -0.65,-1.357 -1.2972,-2.27161 -2.36585,-3.34344 -1.71786,-1.72296 -3.5361,-2.69052 -6.10277,-3.24754 -0.70988,-0.15407 -1.04892,-0.17648 -2.70725,-0.1791 -1.98707,-0.003 -2.46115,0.051 -3.90998,0.44587 -3.49218,0.95192 -6.41983,3.53695 -7.85485,6.93563 -1.12286,2.65941 -1.41382,5.69593 -0.82121,8.57036 1.05437,5.11418 4.6763,8.84653 9.54495,9.83594 1.43134,0.29085 3.07999,0.34274 4.73935,0.14909 z"
         id="path22" /><path
         style="fill:#e4a337;fill-opacity:1;stroke:#e4a337;stroke-width:1;stroke-linecap:round;stroke-linejoin:round;stroke-miterlimit:6;stroke-dasharray:none;stroke-opacity:1;paint-order:fill markers stroke"
         d="m -528.62799,-416.41352 -2.40848,-2.5092 0.0322,-0.14679 c 0.0177,-0.0807 0.0619,-0.39418 0.098,-0.69655 0.0701,-0.58518 0.15645,-0.93056 0.53922,-2.15561 0.90842,-2.90737 2.08121,-5.64108 2.94566,-6.86618 0.29983,-0.42489 6.82958,-7.46254 8.65357,-9.32664 2.70274,-2.76217 3.12007,-3.13137 4.04027,-3.57423 0.52453,-0.25244 0.89974,-0.34134 1.4546,-0.34464 1.17644,-0.007 2.06136,0.38782 3.3634,1.50061 0.42569,0.3638 3.94809,3.81764 4.62122,4.53123 1.10731,1.1739 1.85287,2.27679 2.16791,3.20688 0.37976,1.12112 0.19122,2.21715 -0.54977,3.19579 -0.3242,0.42821 -0.9398,1.02063 -3.46134,3.33111 -1.41324,1.29497 -2.81387,2.62689 -4.0087,3.81203 -1.28974,1.27932 -2.25218,2.19139 -3.23273,3.06354 -1.60573,1.42824 -1.59816,1.42314 -3.5406,2.38678 -1.63364,0.81047 -3.18929,1.46931 -5.90447,2.50063 -1.04047,0.39523 -1.05042,0.39806 -1.69828,0.48328 -0.3584,0.0471 -0.66326,0.0928 -0.67747,0.10144 -0.0143,0.009 -1.10963,-1.11341 -2.43429,-2.49348 z"
         id="path23" /><path
         style="fill:none;stroke:#050505;stroke-width:4;stroke-linecap:round;stroke-dasharray:none"
         d="m -514.55094,-416.52231 c -3.12932,1.87434 -6.19426,3.01246 -9.5246,4.28172 -0.85001,0.32395 -2.01422,0.0948 -2.5658,0.72331 l -22.08614,25.16492 c -2.899,3.24329 -5.48562,10.05666 -9.47931,7.34269 -2.6231,-1.78257 -4.58824,-4.63705 -6.87793,-6.83996 -4.41312,-4.24588 4.19389,-7.48083 6.34877,-10.05417 l 25.24137,-22.56961 c 0.64954,-0.58079 0.50755,-1.47004 0.69188,-2.30122 0.22225,-1.00215 2.20974,-7.62439 4.20965,-9.78958 l 6.59845,-7.14375 3.13519,-3.21032 c 1.8437,-1.88788 3.71045,-3.57635 6.69012,-3.05271 2.36179,0.41505 3.98116,2.22147 6.17064,4.41094 2.18947,2.18948 6.74073,5.88198 4.49538,10.31875 -0.62427,1.23355 -1.67783,2.08634 -2.65502,2.98596 l -3.77766,3.47776 -3.63129,3.59147 z m 1.62404,-1.44992 3.40345,3.81218 m -15.49871,-29.20119 c 2.00585,2.00586 2.61576,2.55991 3.85704,3.80119 m -9.78958,3.96875 c 1.6397,1.6397 2.09566,2.09567 2.91041,2.91042 m 22.75417,8.99583 3.36905,3.48075 m -31.41488,1.81092 6.35,6.61458 m -14.55209,0.79375 7.14375,7.40834 m -15.61041,0.26458 6.87263,7.13722 c 0.68523,0.71161 0.95362,0.95361 1.32945,1.32944 m -20.6375,-0.52916 c -1.90012,-1.80156 -4.89031,-3.56233 -8.99583,-4.15392 -5.47688,-0.7892 -11.76711,1.4618 -17.19792,8.51955 -5.43081,7.05774 -5.95494,9.73691 -9.26041,11.65105 -4.04013,2.33958 -9.28789,2.32703 -13.75834,3.30178 -4.09338,0.89255 -8.10187,3.02913 -11.37708,5.6081 -3.55113,2.79624 -6.44741,6.93505 -7.84645,11.05677 -2.46736,7.26911 -1.20958,13.75551 1.57811,19.84375 7.16939,12.63127 20.39732,27.00345 35.90167,26.87644 7.45685,0 19.65109,-8.16154 23.58385,-17.88061 2.33632,-5.77377 1.2756,-12.66967 4.96584,-17.99166 4.44195,-6.40611 13.57387,-7.2758 17.61623,-14.55209 2.14661,-3.86393 2.32885,-8.21893 1.32597,-12.43541 -0.84898,-3.56945 -2.29254,-5.51624 -3.83564,-7.14375 m -7.88626,-11.89972 7.08598,7.13069 m -26.4518,8.10122 c 14.40592,-0.52617 14.83633,21.77202 0.52917,22.05351 -14.12756,0.27796 -14.73886,-21.53451 -0.52917,-22.05351 m -34.76874,30.65208 c -3.03718,-2.99195 3.60442,-9.13869 6.56062,-6.20732 l 15.38503,15.25583 c 3.17639,3.14971 -3.35332,9.26691 -6.00366,6.65605 z"
         id="path15" /></g></g></svg>
